# xmcd
#
# Track frame offsets:
#	150
#	20897
#	48237
#	66572
#	84745
#	105152
#	118272
#	132235
#	164095
#	180730
#	206402
#	222540
#	242245
#	259490
#	272197
#	289720
#	312340
#
# Disc length: 4380 seconds
#
# Revision: 12
# Processed by: cddbd v1.5.2PL0 Copyright (c) Steve Scherf et al.
# Submitted via: EasyCDDAExtractor 5.1.0
#
DISCID=14111a11
DTITLE=Various Artist - The Alligator Records 20th Anniversary Collection [CD 2)
DYEAR=1991
DGENRE=Blues
TTITLE0=BRICK (ALBERT COLLINS)
TTITLE1=PUSSYCAT MOAN (KATIE WEBSTER)
TTITLE2=YOU DON'T EXIST ANY MORE (LIL' ED and THE BLUES IMPERIALS)
TTITLE3=SECOND HAND MAN (CAREY BELL and JUNIOR WELLS)
TTITLE4=I'VE GOT DREAMS TO REMEMBER (DELBERT MCCLINTON)
TTITLE5=GOING DOWN TO BIG MARY'S (PALADINS)
TTITLE6=300 POUNDS OF HEAVENLY JOY (BIG TWIST and THE MELLOW FELLOWS)
TTITLE7=GOIN BACK HOME (SON SEALS)
TTITLE8=STRIKE LIKE LIGHTNING (LONNIE MACK)
TTITLE9=THE MIDDLE AGED BLUES BOOGIE (SAFFIRE-THE UPPITY BLUES WOMEN)
TTITLE10=EYEBALLIN' (LONNIE BROOKS)
TTITLE11=FULL MOON ON MAIN STREET (KINSEY REPORT)
TTITLE12=CROW JANE (SONNY TERRY)
TTITLE13=I'M THE ZYDECO MAN (CLIFTON CHENIER)
TTITLE14=YOU DON'T KNOW WHAT LOVE IS (FENTON ROBINSON)
TTITLE15=BLUES AFTER HOURS (PINETOP PERKINS)
TTITLE16=BOOT HILL (JOHNNY WINTER)
EXTD=LABEL =Alligator Records and Artist Mgmt., Inc.\nID =alcd105/6\nUPC =014
EXTD=551-1056-26\nCOPYRIGHT =1991\n*****\n YEAR: 1991
EXTT0=
EXTT1=
EXTT2=
EXTT3=
EXTT4=
EXTT5=
EXTT6=
EXTT7=
EXTT8=
EXTT9=
EXTT10=
EXTT11=
EXTT12=
EXTT13=
EXTT14=
EXTT15=
EXTT16=
PLAYORDER=
